<svg id="svg" version="1.1" xmlns="http://www.w3.org/2000/svg" xmlns:xlink="http://www.w3.org/1999/xlink" width="400" height="300" viewBox="0, 0, 400,300"><g id="svgg"><path id="path0" d="M72.444 99.111 C 71.452 100.104,72.101 105.609,73.666 109.459 C 75.877 114.902,75.672 114.879,69.799 109.025 C 62.756 102.005,60.729 102.576,64.728 110.454 C 69.058 118.985,73.880 122.867,82.666 124.897 C 88.187 126.173,89.493 127.432,86.899 128.980 C 83.768 130.847,82.683 132.944,81.986 138.476 C 81.166 144.986,79.947 146.752,75.595 147.740 C 65.261 150.086,57.475 153.712,55.114 157.281 C 51.423 162.858,47.189 175.481,48.368 177.390 C 48.574 177.723,49.010 182.272,49.337 187.498 C 50.077 199.334,50.114 199.567,51.333 200.120 C 52.582 200.686,94.107 200.800,97.454 200.246 L 99.908 199.841 98.454 197.595 C 97.654 196.360,96.746 195.346,96.436 195.342 C 94.784 195.317,91.910 192.416,92.250 191.116 C 92.455 190.332,92.037 188.806,91.284 187.587 C 90.554 186.405,89.221 183.275,88.321 180.631 L 86.686 175.824 89.191 173.319 C 90.569 171.941,92.120 169.956,92.638 168.907 C 93.156 167.858,94.601 165.459,95.849 163.575 C 98.482 159.600,98.899 155.672,97.063 152.121 C 96.434 150.905,96.031 149.255,96.169 148.455 C 96.373 147.262,96.539 147.420,97.088 149.333 C 98.335 153.675,106.902 151.775,107.456 147.035 C 107.608 145.732,107.433 144.366,107.066 144.000 C 106.700 143.633,106.621 143.333,106.890 143.333 C 107.160 143.333,107.005 142.658,106.547 141.833 C 106.089 141.008,105.677 140.183,105.633 140.000 C 105.588 139.817,105.326 139.158,105.051 138.536 C 104.776 137.914,104.671 135.730,104.816 133.683 C 105.068 130.148,104.996 129.942,103.374 129.553 C 99.381 128.597,96.631 126.520,93.042 121.751 C 90.999 119.037,88.654 116.363,87.831 115.809 C 84.473 113.549,80.539 109.043,78.642 105.284 C 75.953 99.958,73.771 97.784,72.444 99.111 M75.488 102.167 C 76.209 102.992,77.496 105.017,78.347 106.667 C 79.199 108.317,82.045 111.767,84.672 114.333 C 87.300 116.900,90.801 120.739,92.454 122.865 C 95.590 126.898,99.716 130.000,101.942 130.000 C 102.674 130.000,103.436 130.606,103.683 131.384 C 104.275 133.250,103.564 133.798,101.900 132.759 C 101.145 132.287,100.726 132.224,100.970 132.617 C 101.213 133.011,100.944 133.333,100.373 133.333 C 99.081 133.333,98.933 137.248,100.167 138.779 C 101.190 140.050,103.333 140.862,103.333 139.979 C 103.333 138.147,104.557 139.759,105.545 142.892 C 106.982 147.450,106.967 148.185,105.446 147.702 C 104.500 147.402,104.238 147.655,104.279 148.824 C 104.325 150.113,104.042 150.302,102.333 150.119 C 99.348 149.800,97.178 147.537,98.135 145.741 C 98.775 144.539,98.743 144.450,97.912 145.136 C 97.376 145.577,96.052 145.823,94.969 145.682 C 93.886 145.541,92.481 145.405,91.846 145.379 C 91.192 145.353,90.511 144.611,90.274 143.667 C 90.044 142.750,89.604 142.000,89.296 142.000 C 87.260 142.000,90.362 146.042,92.682 146.413 C 94.248 146.664,95.116 147.124,94.931 147.607 C 94.765 148.039,95.086 149.686,95.643 151.267 C 96.201 152.848,96.465 154.453,96.230 154.834 C 95.995 155.214,95.827 156.377,95.856 157.418 C 95.886 158.459,95.630 159.483,95.288 159.694 C 94.946 159.906,94.667 160.682,94.667 161.420 C 94.667 164.540,92.786 164.849,92.112 161.840 L 91.476 159.000 91.405 161.810 C 91.204 169.708,84.000 178.611,84.000 170.961 C 84.000 169.597,83.725 168.758,83.353 168.988 C 81.900 169.886,83.228 179.258,85.464 183.883 C 86.647 186.331,87.777 189.833,87.975 191.667 C 88.321 194.888,88.410 195.007,90.600 195.216 C 91.909 195.341,93.378 196.045,94.078 196.883 C 95.922 199.092,95.564 199.601,93.507 197.694 C 91.454 195.790,91.387 195.771,90.000 196.667 C 89.182 197.195,89.258 197.315,90.418 197.323 C 91.198 197.329,92.210 197.783,92.667 198.333 C 93.373 199.184,93.201 199.333,91.518 199.333 C 88.456 199.333,87.540 197.778,82.288 183.667 C 80.924 180.000,78.971 175.324,77.949 173.276 C 76.115 169.599,76.108 169.538,77.395 168.435 C 78.685 167.331,78.683 167.293,77.193 164.704 C 75.448 161.672,74.731 161.568,76.284 164.572 C 77.581 167.079,77.619 168.068,76.401 167.600 C 74.737 166.962,74.567 168.582,75.965 171.744 C 77.424 175.041,77.895 177.901,76.667 176.000 C 76.131 175.171,76.017 175.227,76.000 176.333 C 75.984 177.356,75.843 177.452,75.396 176.745 C 74.934 176.016,74.722 176.108,74.381 177.184 C 73.394 180.294,72.248 179.231,71.056 174.100 C 68.743 164.135,68.100 163.528,62.427 165.960 C 56.546 168.481,51.925 174.803,52.091 180.101 C 52.145 181.816,52.296 182.319,52.461 181.333 C 54.191 170.995,66.882 160.271,68.350 167.907 C 68.536 168.875,68.983 170.946,69.344 172.510 C 70.779 178.729,69.865 182.508,65.444 188.625 C 62.267 193.022,60.293 197.903,61.311 198.847 C 62.027 199.510,62.118 199.444,61.786 198.500 C 61.065 196.453,61.931 195.250,63.515 196.097 C 65.714 197.274,73.771 196.249,77.825 194.276 C 81.540 192.468,84.529 192.359,85.390 194.000 C 87.380 197.790,87.864 199.333,87.062 199.333 C 86.264 199.333,85.222 197.693,84.415 195.167 C 84.166 194.387,83.426 194.033,82.188 194.100 L 80.333 194.200 82.167 194.478 C 83.537 194.685,84.000 195.132,84.000 196.244 C 84.000 197.063,84.360 198.093,84.800 198.533 C 85.422 199.156,84.348 199.336,79.967 199.344 C 76.868 199.349,70.401 199.540,65.595 199.767 C 55.256 200.255,55.560 200.514,58.029 193.308 C 59.093 190.205,59.955 186.767,59.945 185.667 C 59.933 184.393,59.469 185.414,58.666 188.476 C 57.046 194.659,56.096 196.519,55.204 195.257 C 54.727 194.582,54.646 194.761,54.903 195.921 C 55.100 196.812,54.858 197.904,54.349 198.413 C 52.038 200.724,49.561 188.406,49.790 175.743 C 49.862 171.769,52.894 162.667,54.145 162.667 C 54.475 162.667,54.573 162.387,54.362 162.046 C 54.150 161.704,54.649 160.954,55.471 160.379 C 56.473 159.677,56.641 159.326,55.982 159.310 C 55.416 159.296,55.707 158.882,56.667 158.333 C 57.692 157.747,57.949 157.362,57.333 157.333 C 56.685 157.303,56.868 156.989,57.854 156.442 C 58.691 155.977,59.200 155.422,58.986 155.209 C 58.640 154.862,67.911 150.667,69.024 150.667 C 74.608 150.667,82.549 145.954,82.926 142.417 C 83.013 141.607,83.237 140.656,83.424 140.305 C 83.611 139.954,83.703 138.542,83.628 137.167 C 83.553 135.792,83.756 134.667,84.079 134.667 C 84.402 134.667,84.667 134.242,84.667 133.723 C 84.667 132.540,90.768 128.000,92.359 128.000 C 93.479 128.000,93.478 127.931,92.330 126.663 C 91.664 125.927,90.992 125.453,90.836 125.609 C 90.680 125.764,89.814 125.249,88.910 124.464 C 86.591 122.447,76.432 116.672,76.014 117.133 C 75.823 117.344,76.076 117.661,76.575 117.839 C 77.343 118.111,77.343 118.261,76.575 118.801 C 75.949 119.242,76.253 119.313,77.556 119.027 C 78.785 118.758,79.295 118.856,79.017 119.307 C 78.781 119.688,79.073 120.000,79.667 120.000 C 80.260 120.000,80.583 120.263,80.383 120.585 C 80.184 120.908,80.937 121.354,82.055 121.578 C 83.321 121.831,83.914 122.266,83.627 122.730 C 83.311 123.242,83.637 123.327,84.667 123.000 C 85.763 122.652,86.031 122.744,85.662 123.340 C 83.000 127.648,69.840 118.962,65.714 110.174 C 63.501 105.458,63.909 103.970,66.555 107.114 C 72.482 114.155,73.650 115.673,73.500 116.144 C 73.408 116.431,73.970 116.667,74.748 116.667 C 76.000 116.667,76.058 116.532,75.248 115.500 C 74.452 114.485,74.463 114.434,75.333 115.109 C 76.601 116.091,86.667 120.693,86.667 120.290 C 86.667 120.125,84.857 119.113,82.645 118.041 C 76.755 115.189,73.333 109.774,73.333 103.308 C 73.333 100.268,73.672 100.089,75.488 102.167 M90.595 123.732 C 92.573 125.529,94.523 127.093,94.929 127.206 C 95.949 127.491,90.018 122.054,88.351 121.176 C 87.608 120.784,88.618 121.935,90.595 123.732 M86.346 135.500 C 87.611 139.847,88.364 141.332,89.301 141.323 C 89.946 141.317,90.065 141.129,89.618 140.823 C 88.485 140.047,87.933 138.001,88.854 137.990 C 89.368 137.983,89.299 137.742,88.667 137.333 C 88.117 136.978,87.949 136.682,88.294 136.677 C 88.639 136.671,88.339 136.192,87.627 135.612 C 86.471 134.670,86.462 134.598,87.535 134.938 C 88.237 135.160,88.567 135.044,88.329 134.659 C 87.473 133.275,85.894 133.945,86.346 135.500 M102.251 135.200 C 102.432 135.493,102.000 136.096,101.290 136.539 C 100.255 137.185,100.000 137.168,100.000 136.450 C 100.000 134.898,101.537 134.044,102.251 135.200 M91.198 153.711 C 90.998 154.053,91.044 154.913,91.302 155.622 C 91.559 156.331,91.934 156.631,92.135 156.289 C 92.336 155.947,92.289 155.087,92.032 154.378 C 91.774 153.669,91.399 153.369,91.198 153.711 M109.333 179.667 L 109.333 200.667 112.667 200.667 L 116.000 200.667 116.000 192.278 C 116.000 187.592,116.265 183.987,116.599 184.111 C 116.929 184.233,120.239 188.008,123.955 192.500 L 130.710 200.667 135.355 200.667 C 141.144 200.667,141.576 201.793,130.966 189.220 C 122.907 179.670,122.034 178.396,122.881 177.424 C 132.094 166.849,138.000 159.759,138.000 159.274 C 138.000 158.940,135.969 158.667,133.486 158.667 L 128.972 158.667 123.047 165.667 C 119.789 169.517,116.870 172.667,116.561 172.667 C 116.253 172.667,116.000 169.517,116.000 165.667 L 116.000 158.667 112.667 158.667 L 109.333 158.667 109.333 179.667 M141.333 159.233 C 141.333 160.534,161.382 200.667,162.032 200.667 C 162.422 200.667,164.492 196.992,166.631 192.500 C 168.770 188.008,173.253 178.801,176.593 172.040 C 183.769 157.515,183.562 158.667,178.998 158.667 L 175.329 158.667 168.839 171.667 C 165.270 178.817,162.153 184.667,161.913 184.667 C 161.673 184.667,158.611 178.817,155.109 171.667 L 148.742 158.667 145.038 158.667 C 143.000 158.667,141.333 158.921,141.333 159.233 M197.913 162.833 C 195.096 168.406,180.000 200.067,180.000 200.402 C 180.000 200.548,181.738 200.667,183.861 200.667 L 187.722 200.667 189.530 196.981 L 191.337 193.296 200.502 193.481 L 209.667 193.667 211.294 197.167 L 212.921 200.667 216.865 200.667 C 220.155 200.667,220.743 200.495,220.413 199.633 C 218.941 195.798,200.903 158.674,200.510 158.671 C 200.240 158.668,199.071 160.542,197.913 162.833 M228.667 179.667 L 228.667 200.667 231.971 200.667 L 235.275 200.667 235.471 195.833 L 235.667 191.000 238.191 190.792 C 240.569 190.595,240.988 190.875,245.423 195.625 L 250.132 200.667 255.219 200.667 L 260.306 200.667 254.486 194.820 C 247.729 188.032,247.922 188.624,251.283 184.978 C 261.686 173.692,252.684 158.690,235.500 158.673 L 228.667 158.667 228.667 179.667 M262.667 161.964 L 262.667 165.285 269.167 165.476 L 275.667 165.667 275.844 183.167 L 276.022 200.667 279.678 200.667 L 283.333 200.667 283.333 183.000 L 283.333 165.333 290.037 165.333 L 296.740 165.333 296.537 162.167 L 296.333 159.000 279.500 158.822 L 262.667 158.644 262.667 161.964 M310.328 169.500 C 307.458 175.458,302.922 184.908,300.250 190.500 L 295.392 200.667 299.400 200.667 L 303.407 200.667 305.086 197.000 L 306.764 193.333 316.086 193.333 L 325.407 193.333 327.086 197.000 L 328.764 200.667 332.755 200.667 C 334.950 200.667,336.610 200.442,336.445 200.167 C 336.279 199.892,334.212 195.617,331.851 190.667 C 320.891 167.692,316.421 158.667,316.002 158.667 C 315.752 158.667,313.199 163.542,310.328 169.500 M346.000 179.667 L 346.000 200.667 359.333 200.667 L 372.667 200.667 372.667 197.333 L 372.667 194.000 363.000 194.000 L 353.333 194.000 353.333 176.333 L 353.333 158.667 349.667 158.667 L 346.000 158.667 346.000 179.667 M243.822 167.040 C 251.242 171.902,247.984 183.564,239.185 183.637 L 235.667 183.667 235.478 175.370 C 235.375 170.807,235.456 166.642,235.658 166.115 C 236.124 164.901,241.483 165.508,243.822 167.040 M80.667 171.627 C 80.667 172.156,80.949 172.762,81.293 172.975 C 81.637 173.188,81.874 172.756,81.818 172.014 C 81.703 170.492,80.667 170.144,80.667 171.627 M203.326 179.985 C 206.825 186.944,206.949 186.667,200.333 186.667 C 193.739 186.667,193.921 187.064,197.323 180.102 C 200.542 173.516,200.078 173.525,203.326 179.985 M317.633 177.167 C 318.300 178.542,319.552 181.242,320.415 183.167 L 321.983 186.667 316.030 186.667 L 310.077 186.667 312.810 180.667 C 315.925 173.829,315.990 173.782,317.633 177.167 M80.478 181.833 C 83.994 189.489,84.286 191.333,81.986 191.333 C 80.937 191.333,79.892 191.635,79.664 192.005 C 78.280 194.243,71.717 195.505,67.833 194.278 C 66.180 193.757,66.276 193.502,70.088 188.319 C 71.970 185.760,74.073 182.416,74.763 180.886 C 75.863 178.444,76.673 177.579,78.039 177.386 C 78.244 177.357,79.342 179.358,80.478 181.833 M60.168 180.333 C 60.176 181.800,60.312 182.322,60.472 181.492 C 60.631 180.663,60.625 179.463,60.458 178.826 C 60.291 178.188,60.161 178.867,60.168 180.333 " stroke="none" fill="inherit" fill-rule="evenodd"></path></g></svg>